PathFileType	4	(X/Y/Z)	s03c0001.trc
DataRate	CameraRate	NumFrames	NumMarkers	Units	OrigDataRate	OrigDataStartFrame	OrigNumFrames
200	200	6	49	mm	200	0	2000
Frame#	Time	racr			lacr			c7			jug			rlel			rdr			llel			ldr			s2			lic			ric			lasi			rasi			rpsi			lpsi			rgt			lgt			rth1			rth2			rth3			rth4			rlfc			rmfc			rsh1			rsh2			rsh3			rsh4			rlmal			rmmal			rcal			rtoe			rmt5			rmt1			lth1			lth2			lth4			lth3			llfc			lmfc			lsh1			lsh2			lsh3			lsh4			llmal			lmmal			lcal			ltoe			lmt1			lmt5			
		X1	Y1	Z1	X2	Y2	Z2	X3	Y3	Z3	X4	Y4	Z4	X5	Y5	Z5	X6	Y6	Z6	X7	Y7	Z7	X8	Y8	Z8	X9	Y9	Z9	X10	Y10	Z10	X11	Y11	Z11	X12	Y12	Z12	X13	Y13	Z13	X14	Y14	Z14	X15	Y15	Z15	X16	Y16	Z16	X17	Y17	Z17	X18	Y18	Z18	X19	Y19	Z19	X20	Y20	Z20	X21	Y21	Z21	X22	Y22	Z22	X23	Y23	Z23	X24	Y24	Z24	X25	Y25	Z25	X26	Y26	Z26	X27	Y27	Z27	X28	Y28	Z28	X29	Y29	Z29	X30	Y30	Z30	X31	Y31	Z31	X32	Y32	Z32	X33	Y33	Z33	X34	Y34	Z34	X35	Y35	Z35	X36	Y36	Z36	X37	Y37	Z37	X38	Y38	Z38	X39	Y39	Z39	X40	Y40	Z40	X41	Y41	Z41	X42	Y42	Z42	X43	Y43	Z43	X44	Y44	Z44	X45	Y45	Z45	X46	Y46	Z46	X47	Y47	Z47	X48	Y48	Z48	X49	Y49	Z49	
0	0.0000	251.934708	1571.637207	585.033630	250.380112	1587.093262	200.256577	185.525909	1606.960083	397.681641	351.968323	1555.460327	396.146088	176.631851	1299.427490	692.428894	270.334747	1118.214355	886.592346	174.047073	1315.478394	99.542603	256.431335	1124.280151	-104.849922	152.954239	1066.501465	376.403046	288.380737	1165.308105	197.110977	281.478699	1150.930664	568.730164	351.436554	1104.434448	239.251266	352.087738	1100.765137	522.217773	155.681625	1106.353882	425.868622	158.847702	1114.770142	343.039764	265.048157	1008.779663	563.345398	278.331055	1015.816528	188.577164	278.793518	870.286865	578.123901	310.218384	786.548584	571.833801	300.491333	703.945129	557.794800	346.287262	792.700256	567.838379	295.911438	577.538513	525.985474	327.492004	557.415649	419.694489	242.059616	412.481567	553.459839	253.346359	323.430023	548.641174	217.996017	243.063568	542.965942	288.135254	319.599640	531.702576	209.409500	103.446396	531.669312	247.395401	122.073814	450.409271	165.097290	55.955288	483.645172	469.206116	91.192024	504.800812	353.047150	43.423847	563.650635	379.347534	81.439522	454.887115	290.584656	866.092651	175.343414	315.409332	782.234924	182.774490	350.833466	785.412903	184.662842	294.586853	698.185181	196.243011	310.679169	576.967224	221.727524	333.352386	558.729858	335.379272	251.207779	413.210480	185.052673	263.524597	329.068695	193.340195	228.794266	244.600571	196.923172	298.910583	324.539124	212.838379	220.355133	110.734230	206.062500	259.177765	124.921013	292.899231	172.265671	55.031109	258.168823	478.721527	92.638107	234.275757	389.995148	73.430374	286.700714	357.953247	50.867382	172.718185	
1	0.0050	251.964767	1571.655762	585.054321	250.429199	1587.089478	200.222916	185.527237	1606.969238	397.678436	351.968292	1555.480835	396.145081	176.659210	1299.431274	692.445740	270.377747	1118.252197	886.630005	174.038116	1315.502197	99.526039	256.457977	1124.325317	-104.897362	152.947968	1066.506470	376.416260	288.385620	1165.304565	197.106827	281.476715	1150.938354	568.740601	351.437195	1104.440674	239.252197	352.098022	1100.763794	522.211548	155.658783	1106.361450	425.839386	158.822342	1114.767822	343.039642	265.051300	1008.775696	563.351257	278.306305	1015.818054	188.589172	278.805328	870.292725	578.116333	310.216675	786.535645	571.825195	300.510773	703.927856	557.778198	346.289673	792.705811	567.837952	295.918762	577.537537	525.990540	327.495270	557.401855	419.723206	242.052856	412.488861	553.463867	253.336472	323.433197	548.665527	217.967880	243.079895	542.969788	288.117279	319.591949	531.697632	209.417862	103.462982	531.666138	247.382843	122.079857	450.406311	165.097290	55.955288	483.645172	469.225769	91.178825	504.814545	353.011902	43.446201	563.645020	379.336426	81.443649	454.886932	290.584747	866.097534	175.339157	315.397888	782.232422	182.786880	350.837372	785.406555	184.661926	294.585358	698.191589	196.237900	310.665771	576.955994	221.720093	333.329742	558.729736	335.363525	251.210693	413.208740	185.070724	263.523804	329.058380	193.325195	228.800125	244.581619	196.929260	298.910461	324.531769	212.841751	220.358658	110.736664	206.071167	259.168213	124.920067	292.915192	172.249954	55.025017	258.174591	478.704163	92.659492	234.271423	390.031128	73.468735	286.703979	357.930786	50.858551	172.717834	
2	0.0100	251.961197	1571.673096	585.069275	250.414948	1587.102417	200.218857	185.500839	1606.967285	397.724518	351.982483	1555.488159	396.146912	176.676895	1299.449097	692.473083	270.393951	1118.277710	886.668152	174.057266	1315.524292	99.499657	256.475952	1124.365601	-104.938362	152.924606	1066.515991	376.433502	288.359741	1165.326782	197.111038	281.478699	1150.930664	568.730164	351.416473	1104.442749	239.266846	352.086212	1100.775635	522.217651	155.687485	1106.410645	425.887909	158.807205	1114.762573	343.064667	265.039734	1008.776611	563.353821	278.292572	1015.821716	188.601440	278.817657	870.307922	578.147095	310.217133	786.540405	571.823486	300.523407	703.942993	557.794678	346.303253	792.690063	567.834473	295.932556	577.523499	525.999146	327.476624	557.405640	419.723083	242.054703	412.478363	553.463928	253.352798	323.424713	548.660461	217.974030	243.069382	542.963806	288.137085	319.593323	531.702820	209.415985	103.452713	531.668762	247.382553	122.067215	450.410553	165.091431	55.973423	483.644287	469.223328	91.152328	504.799103	353.027802	43.432537	563.637573	379.350342	81.428032	454.885101	290.565613	866.096008	175.349640	315.401093	782.238892	182.800079	350.815033	785.418335	184.656952	294.586304	698.191895	196.244751	310.680084	576.955994	221.723373	333.313721	558.730530	335.340576	251.196045	413.206512	185.081604	263.518585	329.077759	193.325729	228.802826	244.589325	196.921570	298.913300	324.535522	212.831238	220.358093	110.727982	206.073135	259.159912	124.914238	292.907013	172.275803	55.041729	258.186920	479.914124	92.795326	235.273895	390.006622	73.441513	286.715118	357.955872	50.868252	172.716583	
3	0.0150	251.967850	1571.699219	585.082642	247.956955	1587.005005	205.833801	185.503494	1606.953613	397.700195	353.133728	1555.095459	397.989990	176.693375	1299.467163	692.520264	270.427673	1118.324585	886.736145	174.055908	1315.542480	99.491180	257.453613	1124.051270	-103.772034	154.268753	1065.733643	376.223938	290.246124	1164.681519	198.406616	281.288971	1150.879883	568.825256	351.442902	1104.528198	239.307251	352.084747	1100.772339	522.201233	155.693604	1106.404785	425.894928	158.807205	1114.762573	343.064667	265.057251	1008.771118	563.359009	278.276428	1015.815918	188.602921	278.811462	870.310486	578.167236	310.238037	787.014099	572.412476	300.833801	703.880737	557.859436	346.306061	792.696411	567.833069	295.936554	577.522278	525.993896	327.495178	557.433777	419.703674	242.048309	412.488708	553.475769	253.361511	323.420197	548.662720	217.980652	243.071899	542.973511	288.728088	319.752258	531.766724	208.493301	103.896172	531.538879	249.065323	121.707405	451.033844	165.097290	55.955288	483.645172	468.026520	91.730530	504.098145	353.003204	43.457470	563.633667	379.705109	81.372742	454.867554	291.454071	865.435547	176.565399	315.736755	782.124512	184.267319	350.959656	785.495300	184.248337	294.577576	698.198547	196.239899	310.317047	577.295959	221.712173	333.329498	558.741272	335.351318	251.977661	412.562897	186.077927	263.512817	329.064117	193.349808	228.805344	244.579285	196.925491	298.908386	324.538330	212.821442	220.360275	110.737129	206.084946	259.175049	124.912437	292.905518	172.271973	55.017418	258.187500	479.934174	92.816216	235.283936	390.015320	73.437981	286.705505	357.931946	50.857021	172.718430	
4	0.0200	251.856934	1571.475342	585.145081	247.649597	1586.339478	207.307831	185.451706	1606.533081	397.784821	352.254486	1554.920044	399.598907	176.644623	1299.254639	692.500000	270.472931	1118.314331	886.719482	173.991287	1315.685303	99.583504	257.307831	1123.639038	-102.678062	154.314575	1065.783203	376.210907	289.629974	1164.052612	200.167923	281.334106	1150.881836	568.805298	351.400940	1104.483154	239.295242	353.220001	1100.037476	523.934448	155.571671	1106.788940	425.921906	158.547684	1115.022583	343.201935	265.116913	1008.849915	563.415405	278.353882	1015.816040	188.904541	278.835632	870.372009	578.074768	310.069458	786.957336	572.304260	300.937164	703.910828	557.736206	346.209259	792.612976	567.789490	296.037231	577.446167	525.884705	327.382690	557.121826	419.492615	242.173080	412.326721	553.553406	254.576599	322.449127	549.560059	218.101669	242.940445	542.936829	290.150208	319.062714	532.311035	208.242874	103.610519	531.413452	249.882156	120.953163	451.709076	164.958786	55.784206	483.636017	468.270477	91.509506	503.974976	353.131226	43.371750	563.582031	381.470001	80.710770	455.411804	291.473938	864.993896	177.871552	315.312469	781.521790	186.294830	350.962738	785.435547	185.374985	294.624084	698.134949	196.378845	310.341858	577.135132	221.245590	334.048920	557.794067	335.677765	252.048828	412.015778	186.972214	263.732208	328.955475	193.777618	228.910324	244.572937	196.902527	299.041962	323.919067	213.546265	220.433777	110.354141	205.891113	259.360992	124.818092	292.913513	171.751526	54.775284	258.267120	479.682953	91.910706	235.937897	391.322083	72.949989	287.335541	358.092682	50.898975	172.611313	
5	0.0250	251.935928	1571.668945	585.110291	246.725067	1587.567139	204.374298	185.486526	1606.882935	397.765930	351.987000	1555.508057	396.121246	176.754562	1299.445557	692.510681	270.462677	1118.392090	886.815186	174.032639	1315.692627	99.523605	256.516327	1124.533936	-105.010696	154.265610	1065.792114	376.227722	288.173859	1165.395264	197.055954	281.337646	1150.884155	568.793640	351.374817	1104.548584	239.288788	352.047913	1100.786255	522.162598	155.662216	1106.585205	425.955994	158.695587	1114.914429	343.188263	265.138153	1008.857605	563.422607	278.288605	1015.836853	188.703735	278.872925	870.306519	578.102356	310.253235	786.985718	572.348816	300.933929	703.921875	557.739807	346.311340	792.691040	567.795837	296.028015	577.472107	525.866455	327.515594	557.339539	419.651733	242.136139	412.432465	553.497437	253.439224	323.282898	548.640320	218.108475	242.948669	542.948975	287.530701	320.154694	531.151184	208.431213	103.753647	531.481689	248.572769	122.096252	450.633270	165.031631	55.874191	483.640839	468.154083	91.598030	504.029388	353.152893	43.390461	563.593811	378.697083	81.798271	454.543213	290.622528	866.045227	175.509140	314.956879	783.054016	182.805679	350.866547	785.533752	184.729767	294.590393	698.165161	196.280014	310.370544	577.228210	221.563354	332.233673	559.087524	334.888489	251.238251	413.175293	185.055008	263.657806	329.020081	193.576965	228.852829	244.572250	196.918442	298.303680	324.822662	212.019775	220.415710	110.599648	205.985168	259.354065	124.829788	292.915497	172.197556	54.892082	258.170380	479.154816	92.514290	234.580963	389.229675	73.556824	286.167816	358.083771	50.898571	172.619186	
